# xmcd
#
# Track frame offsets:
#	150
#	17326
#	34336
#	48315
#	68174
#	86546
#	106234
#	123412
#	140421
#	154401
#	174260
#	192631
#
# Disc length: 2830 seconds
#
# Revision: 1
# Processed by: cddbd v1.5.2PL0 Copyright (c) Steve Scherf et al.
# Submitted via: audiograbber 1.83.01
#
DISCID=9d0b0c0c
DTITLE=Various Artist - CB20028 Hot Hits Vol. 28
DYEAR=1900
DGENRE=Karaoke
TTITLE0=Tracy Byrd - I'm From The Country (Vocals)
TTITLE1=Lynns, The - Woman To  Woman (Vocals)
TTITLE2=Gary Allan - It Would Be You (Vocals)
TTITLE3=Sawyer Brown - Another Side (Vocals)
TTITLE4=Melodie Crittenden - Broken Road (Vocals)
TTITLE5=Sons Of The Desert - Leaving October (Vocals)
TTITLE6=Tracy Byrd - I'm From The Country
TTITLE7=Lynns, The - Woman To Woman
TTITLE8=Garry Allan - It Would Be You
TTITLE9=Sawyer Brown - Another Side
TTITLE10=Melodie Crittenden - Broken Road
TTITLE11=Sons Of The Desert - Leaving October
EXTD=
EXTT0=
EXTT1=
EXTT2=
EXTT3=
EXTT4=
EXTT5=
EXTT6=
EXTT7=
EXTT8=
EXTT9=
EXTT10=
EXTT11=
PLAYORDER=
